{"title":"Wadjda 2012 BRRip 720p x264 AAC - PRiSTiNE [P2PDL]","uid":9622378,"size":650895640,"categoryP":"video","categoryS":"hd___movies","magnet":"?xt=urn:btih:1c7e5711c7f22bfe85ff35e8399c164634dfb5aa&amp;dn=Wadjda+2012+BRRip+720p+x264+AAC+-+PRiSTiNE+%5BP2PDL%5D&amp;tr=udp%3A%2F%2Ftracker.openbittorrent.com%3A80&amp;tr=udp%3A%2F%2Fopen.demonii.com%3A1337&amp;tr=udp%3A%2F%2Ftracker.coppersurfer.tk%3A6969&amp;tr=udp%3A%2F%2Fexodus.desync.com%3A6969","seeders":14,"leechers":1,"uploader":"ValidusVyto","files":-1,"time":1392528228,"description":"Wadjda.2012.BRRip.720p.x264.AAC-PRiSTiNE\n\n\nGenre: Drama &lt;a href=&quot;\nhttp://www.imdb.com/title/tt2258858/&quot; rel=&quot;nofollow&quot; target=&quot;_NEW&quot;&gt;\nhttp://www.imdb.com/title/tt2258858/&lt;/a&gt;\n\n\nFormat                                   : MPEG-4\nFile size                                : 613 MiB\nDuration                                 : 1h 36mn\nOverall bit rate                         : 884 Kbps\n\nVideo\nFormat                                   : AVC\nBit rate                                 : 800 Kbps\nWidth                                    : 1 280 pixels\nHeight                                   : 688 pixels\nDisplay aspect ratio                     : 1.855\nFrame rate mode                          : Constant\nFrame rate                               : 24.000 fps\nBit depth                                : 8 bits\nStream size                              : 554 MiB (90%)\nWriting library                          : x264 core 140 r2377\n\nAudio\nFormat                                   : AAC\nBit rate mode                            : Variable\nBit rate                                 : 80.0 Kbps\nChannel(s)                               : 2 channels\nChannel positions                        : Front: L R\nSampling rate                            : 48.0 KHz\nStream size                              : 55.5 MiB (9%)\nLanguage                                 : Arabic\n\nSubtitle                                 : Yes (English)\n &lt;a href=&quot;\nhttp://someimage.com/o8CUrXp&quot; rel=&quot;nofollow&quot; target=&quot;_NEW&quot;&gt;\nhttp://someimage.com/o8CUrXp&lt;/a&gt; &lt;a href=&quot;\nhttp://someimage.com/O0svEDV&quot; rel=&quot;nofollow&quot; target=&quot;_NEW&quot;&gt;\nhttp://someimage.com/O0svEDV&lt;/a&gt; &lt;a href=&quot;\nhttp://someimage.com/ghkWULM&quot; rel=&quot;nofollow&quot; target=&quot;_NEW&quot;&gt;\nhttp://someimage.com/ghkWULM&lt;/a&gt; &lt;a href=&quot;\nhttp://someimage.com/ef4sDpE&quot; rel=&quot;nofollow&quot; target=&quot;_NEW&quot;&gt;\nhttp://someimage.com/ef4sDpE&lt;/a&gt; &lt;a href=&quot;\nhttp://someimage.com/R05ACbP&quot; rel=&quot;nofollow&quot; target=&quot;_NEW&quot;&gt;\nhttp://someimage.com/R05ACbP&lt;/a&gt; &lt;a href=&quot;\nhttp://someimage.com/z7cRcen&quot; rel=&quot;nofollow&quot; target=&quot;_NEW&quot;&gt;\nhttp://someimage.com/z7cRcen&lt;/a&gt;\n\n----------------------------------------------------------------------------------------------------\n\n\nEncoded using revolutionary 10bit encoding, which enables us to provide you more crispier \nand sharper images at small sizes, just make sure you follow our instructions without a fault.\nRecommend to you to use latest version of VLC player. Install K-Lite Codec Pack or shark007 codecs\nin case of any kind of problem in playback (For non-VLC Media Player users). Alternatively, install\nCore AVC codecs, the fastest decoder that there is coupled with Community Center Codec Pack and play\non Windows Media Player Classic. Check sample to be sure.\nEnjoy!\n\nEncoder Notes:Looking For Early Access To Anything You Can Provide DVDScr, R5, DVDR, BluRay, Direct\nAudio, Music Releases and Seedboxes. We require dedicated servers, so as to do more \nand fast releases of movies.","torrent":{"xt":"urn:btih:1c7e5711c7f22bfe85ff35e8399c164634dfb5aa","amp;dn":"Wadjda+2012+BRRip+720p+x264+AAC+-+PRiSTiNE+%5BP2PDL%5D","amp;tr":["udp%3A%2F%2Ftracker.openbittorrent.com%3A80","udp%3A%2F%2Fopen.demonii.com%3A1337","udp%3A%2F%2Ftracker.coppersurfer.tk%3A6969","udp%3A%2F%2Fexodus.desync.com%3A6969"],"infoHash":"1c7e5711c7f22bfe85ff35e8399c164634dfb5aa","infoHashBuffer":{"type":"Buffer","data":[28,126,87,17,199,242,43,254,133,255,53,232,57,156,22,70,52,223,181,170]},"announce":[],"urlList":[]}}